<svg width="748" height="159" viewBox="0 0 748 159" fill="none" xmlns="http://www.w3.org/2000/svg">
<rect x="0.815918" y="12.6172" width="24.7076" height="108.395" rx="12.3538" transform="rotate(-30 0.815918 12.6172)" fill="#5EC269"/>
<rect x="157.07" y="0.263672" width="24.7076" height="168.57" rx="12.3538" transform="rotate(30 157.07 0.263672)" fill="#5EC269"/>
<path d="M211.343 42.6804C216.625 42.6804 221.287 46.1313 222.829 51.1828L241.296 111.663C241.364 111.886 241.57 112.039 241.803 112.039V112.039C242.037 112.039 242.243 111.886 242.311 111.663L260.778 51.1828C262.32 46.1313 266.982 42.6804 272.264 42.6804V42.6804C280.479 42.6804 286.269 50.7447 283.643 58.5291L261.796 123.277C258.953 131.704 251.051 137.377 242.158 137.377H241.449C232.555 137.377 224.653 131.704 221.81 123.277L199.964 58.5291C197.338 50.7447 203.128 42.6804 211.343 42.6804V42.6804Z" fill="#1A1A1A"/>
<path d="M301.114 138.58C296.582 138.58 292.56 137.824 289.046 136.314C285.562 134.773 282.803 132.461 280.769 129.378C278.765 126.265 277.763 122.365 277.763 117.68C277.763 113.734 278.457 110.405 279.844 107.692C281.231 104.979 283.142 102.775 285.578 101.08C288.013 99.3845 290.818 98.1053 293.993 97.2421C297.168 96.3482 300.559 95.7471 304.166 95.4388C308.204 95.0689 311.456 94.6836 313.922 94.2829C316.388 93.8513 318.176 93.2502 319.286 92.4796C320.426 91.6781 320.996 90.5529 320.996 89.1041V88.8729C320.996 86.4994 320.18 84.6652 318.546 83.3705C316.912 82.0758 314.708 81.4285 311.934 81.4285C308.944 81.4285 306.539 82.0758 304.72 83.3705V83.3705C301.635 85.5667 298.498 88.6365 294.713 88.5022L292.302 88.4167C285.943 88.1911 281.045 82.2093 284.731 77.0227C284.871 76.8252 285.015 76.6292 285.161 76.4347C287.751 73.0131 291.296 70.3312 295.796 68.3892C300.328 66.4163 305.769 65.4299 312.119 65.4299C316.65 65.4299 320.827 65.9694 324.649 67.0483C328.472 68.0963 331.801 69.6376 334.637 71.6721C337.473 73.6758 339.662 76.1419 341.203 79.0703C342.775 81.9988 343.561 85.3434 343.561 89.1041V128.223C343.561 134.096 338.8 138.858 332.926 138.858V138.858C327.053 138.858 322.291 134.096 322.291 128.223V127.482H321.736C320.472 129.887 318.854 131.921 316.881 133.586C314.939 135.25 312.643 136.499 309.992 137.331C307.371 138.163 304.412 138.58 301.114 138.58ZM308.096 123.783C310.531 123.783 312.72 123.29 314.662 122.304C316.635 121.317 318.207 119.961 319.378 118.235C320.55 116.477 321.135 114.443 321.135 112.131V105.38C320.488 105.719 319.702 106.028 318.777 106.305C317.883 106.582 316.897 106.844 315.818 107.091C314.739 107.338 313.629 107.553 312.489 107.738C311.348 107.923 310.254 108.093 309.206 108.247C307.079 108.586 305.26 109.11 303.749 109.819C302.27 110.528 301.129 111.453 300.328 112.593C299.557 113.703 299.172 115.029 299.172 116.57C299.172 118.913 300.004 120.701 301.669 121.934C303.364 123.167 305.507 123.783 308.096 123.783Z" fill="#1A1A1A"/>
<path d="M387.484 66.3547C392.664 66.3547 396.586 71.0354 395.679 76.1352V76.1352C394.972 80.1072 391.519 83.0006 387.484 83.0006H349.69C347.663 83.0006 346.129 81.1689 346.484 79.1733L348.286 69.0413C348.562 67.4869 349.914 66.3547 351.492 66.3547H387.484ZM358.15 58.5716C358.15 52.3278 363.212 47.2662 369.456 47.2662V47.2662C375.699 47.2662 380.761 52.3278 380.761 58.5716V115.044C380.761 116.431 380.977 117.556 381.408 118.419C381.871 119.252 382.533 119.853 383.397 120.223C384.26 120.562 385.292 120.731 386.495 120.731C387.358 120.731 388.267 120.654 389.223 120.5V120.5C390.439 120.272 391.653 121.045 391.907 122.257L393.895 131.739C394.441 134.343 392.877 136.909 390.286 137.516V137.516C388.344 137.978 386.017 138.271 383.304 138.395C378.002 138.641 373.455 138.025 369.664 136.545C365.903 135.035 363.021 132.692 361.017 129.517C359.044 126.342 358.089 122.35 358.15 117.541V58.5716Z" fill="#1A1A1A"/>
<path d="M412.505 138.562C406.261 138.562 401.199 133.5 401.199 127.256V75.5875C401.199 69.3437 406.261 64.2821 412.505 64.2821V64.2821C418.749 64.2821 423.81 69.3437 423.81 75.5874V127.256C423.81 133.5 418.749 138.562 412.505 138.562V138.562ZM412.528 61.0388C409.353 61.0388 406.625 59.9907 404.344 57.8946C402.063 55.7676 400.922 53.209 400.922 50.2189C400.922 47.2597 402.063 44.7319 404.344 42.6358C406.625 40.5088 409.353 39.4453 412.528 39.4453C415.734 39.4453 418.462 40.5088 420.712 42.6358C422.993 44.7319 424.134 47.2597 424.134 50.2189C424.134 53.209 422.993 55.7676 420.712 57.8946C418.462 59.9907 415.734 61.0388 412.528 61.0388Z" fill="#1A1A1A"/>
<path d="M489.872 77.4191C493.211 82.559 488.183 88.1785 482.055 88.3423L476.94 88.479C474.453 88.5454 472.421 86.5724 470.823 84.6652V84.6652C469.867 83.4938 468.619 82.5845 467.077 81.9371C465.567 81.259 463.81 80.9199 461.806 80.9199C459.186 80.9199 456.951 81.4439 455.102 82.492C453.283 83.5401 452.389 84.9581 452.42 86.746C452.389 88.1331 452.944 89.3353 454.084 90.3526C455.256 91.3698 457.336 92.1867 460.327 92.8032L474.013 95.3926C481.103 96.7489 486.374 98.9992 489.827 102.143C493.31 105.288 495.067 109.449 495.098 114.628C495.067 119.498 493.618 123.737 490.752 127.344C487.916 130.95 484.032 133.755 479.099 135.759C474.167 137.732 468.526 138.718 462.176 138.718C452.034 138.718 444.035 136.638 438.178 132.476C436.021 130.923 434.205 129.176 432.733 127.235C428.647 121.849 434.027 115.5 440.786 115.332L443.267 115.271C447.453 115.167 450.862 118.71 454.362 121.009V121.009C456.427 122.365 459.063 123.043 462.269 123.043C465.166 123.043 467.524 122.504 469.343 121.425C471.162 120.346 472.087 118.913 472.117 117.125C472.087 115.522 471.378 114.243 469.99 113.287C468.603 112.301 466.43 111.53 463.471 110.975L451.079 108.617C443.958 107.322 438.656 104.933 435.173 101.45C431.689 97.9357 429.963 93.466 429.994 88.0406C429.963 83.2935 431.227 79.2399 433.785 75.8799C436.344 72.489 439.981 69.8996 444.698 68.1117C449.414 66.3239 454.978 65.4299 461.39 65.4299C471.008 65.4299 478.591 67.449 484.139 71.4872C486.499 73.1913 488.41 75.1686 489.872 77.4191Z" fill="#1A1A1A"/>
<path d="M501.961 48.8323V41.0645H570.624V48.8323H540.616V135.758H531.969V48.8323H501.961Z" fill="#1A1A1A"/>
<path d="M591.757 137.238C585.13 137.238 579.396 135.697 574.557 132.614C569.717 129.501 565.972 125.201 563.321 119.714C560.701 114.196 559.391 107.847 559.391 100.664C559.391 93.513 560.701 87.163 563.321 81.6146C565.972 76.0353 569.625 71.6735 574.279 68.5294C578.965 65.3544 584.374 63.767 590.509 63.767C594.362 63.767 598.076 64.4759 601.652 65.8939C605.227 67.281 608.433 69.4233 611.269 72.3209C614.136 75.1876 616.401 78.8095 618.066 83.1866C619.73 87.5329 620.563 92.6807 620.563 98.6299V102.699H565.078V95.4395H612.148C612.148 90.8774 611.223 86.7777 609.373 83.1404C607.555 79.4722 605.012 76.5747 601.744 74.4478C598.508 72.3209 594.762 71.2574 590.509 71.2574C586.008 71.2574 582.047 72.4596 578.626 74.8639C575.204 77.2683 572.522 80.4432 570.58 84.3888C568.669 88.3344 567.698 92.6499 567.667 97.3352V101.682C567.667 107.322 568.638 112.254 570.58 116.477C572.553 120.67 575.343 123.922 578.949 126.234C582.556 128.545 586.825 129.701 591.757 129.701C595.117 129.701 598.061 129.177 600.588 128.129C603.147 127.081 605.289 125.679 607.015 123.922C608.772 122.134 610.098 120.176 610.992 118.05L618.806 120.593C617.727 123.583 615.954 126.341 613.488 128.869C611.053 131.397 608.002 133.431 604.333 134.972C600.696 136.483 596.504 137.238 591.757 137.238Z" fill="#1A1A1A"/>
<path d="M657.327 137.238C650.977 137.238 645.444 135.651 640.728 132.476C636.043 129.301 632.405 124.954 629.816 119.437C627.227 113.919 625.932 107.631 625.932 100.572C625.932 93.4513 627.242 87.1168 629.862 81.5683C632.513 76.0198 636.182 71.6735 640.867 68.5294C645.552 65.3544 650.993 63.767 657.189 63.767C661.936 63.767 666.236 64.6917 670.089 66.5412C673.942 68.3599 677.117 70.9337 679.614 74.2628C682.141 77.5611 683.729 81.4142 684.376 85.8221H676.054C675.19 81.8149 673.11 78.3934 669.811 75.5575C666.544 72.6908 662.383 71.2574 657.327 71.2574C652.796 71.2574 648.789 72.4904 645.306 74.9564C641.822 77.3916 639.094 80.7977 637.122 85.1748C635.18 89.5211 634.209 94.561 634.209 100.294C634.209 106.059 635.164 111.16 637.075 115.599C638.987 120.007 641.668 123.459 645.121 125.956C648.604 128.453 652.673 129.701 657.327 129.701C660.472 129.701 663.338 129.116 665.928 127.944C668.548 126.742 670.736 125.047 672.493 122.858C674.281 120.67 675.483 118.065 676.1 115.044H684.422C683.806 119.329 682.28 123.151 679.845 126.511C677.441 129.84 674.312 132.46 670.459 134.371C666.637 136.282 662.259 137.238 657.327 137.238Z" fill="#1A1A1A"/>
<path d="M701.178 91.3706V135.758H692.948V41.0645H701.178V75.8811H701.918C703.582 72.213 706.156 69.2846 709.639 67.0961C713.153 64.9075 717.592 63.8132 722.956 63.8132C727.764 63.8132 731.987 64.7996 735.625 66.7724C739.262 68.7452 742.098 71.6581 744.132 75.5112C746.167 79.3643 747.184 84.1114 747.184 89.7523V135.758H738.908V90.2609C738.908 84.4042 737.274 79.7959 734.006 76.436C730.77 73.0452 726.393 71.3499 720.875 71.3499C717.084 71.3499 713.708 72.1513 710.749 73.7542C707.79 75.3571 705.447 77.669 703.721 80.6898C702.026 83.6798 701.178 87.2401 701.178 91.3706Z" fill="#1A1A1A"/>
</svg>
